HIERARCHY
ROOT Hips
{
	OFFSET 0.000000 0.000000 0.000000
	CHANNELS 6 Xposition Yposition Zposition Xrotation Yrotation Zrotation
	JOINT LeftUpLeg_virtual
	{
		OFFSET 0.000000 0.000000 0.000000
		CHANNELS 3 Xrotation Yrotation Zrotation
		JOINT LeftUpLeg
		{
			OFFSET 13.026900 -6.336304 -1.092800
			CHANNELS 3 Xrotation Yrotation Zrotation
			JOINT LeftLeg
			{
				OFFSET 0.524474 -46.096886 9.782700
				CHANNELS 3 Xrotation Yrotation Zrotation
				JOINT LeftFoot
				{
					OFFSET -0.524474 -53.427422 -12.948200
					CHANNELS 3 Xrotation Yrotation Zrotation
					JOINT LeftToeBase
					{
						OFFSET 0.192200 -14.009700 16.364100
						CHANNELS 3 Xrotation Yrotation Zrotation
						JOINT LeftToe_End
						{
							OFFSET -1.784700 -0.561700 9.474800
							CHANNELS 3 Xrotation Yrotation Zrotation
							End Site
							{
								OFFSET 0 0 0
							}
						}
					}
				}
			}
		}
	}
	JOINT RightUpLeg_virtual
	{
		OFFSET 0.000000 0.000000 0.000000
		CHANNELS 3 Xrotation Yrotation Zrotation
		JOINT RightUpLeg
		{
			OFFSET -12.883000 -6.336304 -1.092800
			CHANNELS 3 Xrotation Yrotation Zrotation
			JOINT RightLeg
			{
				OFFSET -0.524587 -46.096825 9.782800
				CHANNELS 3 Xrotation Yrotation Zrotation
				JOINT RightFoot
				{
					OFFSET 0.524587 -53.427383 -12.948300
					CHANNELS 3 Xrotation Yrotation Zrotation
					JOINT RightToeBase
					{
						OFFSET -0.192200 -14.009700 16.364100
						CHANNELS 3 Xrotation Yrotation Zrotation
						JOINT RightToe_End
						{
							OFFSET 1.784700 -0.561700 9.474800
							CHANNELS 3 Xrotation Yrotation Zrotation
							End Site
							{
								OFFSET 0 0 0
							}
						}
					}
				}
			}
		}
	}
	JOINT Spine_virtual
	{
		OFFSET 0.000000 0.000000 0.000000
		CHANNELS 3 Xrotation Yrotation Zrotation
		JOINT Spine
		{
			OFFSET 0.072000 7.257294 -0.789700
			CHANNELS 3 Xrotation Yrotation Zrotation
			JOINT Spine1
			{
				OFFSET 0.000000 12.508769 -0.658067
				CHANNELS 3 Xrotation Yrotation Zrotation
				JOINT Spine1_split
				{
					OFFSET 0.000000 12.508769 -0.658067
					CHANNELS 3 Xrotation Yrotation Zrotation
					JOINT Spine2
					{
						OFFSET 0.000000 12.508769 -0.658067
						CHANNELS 3 Xrotation Yrotation Zrotation
						JOINT Neck_virtual
						{
							OFFSET 0.000000 0.000000 0.000000
							CHANNELS 3 Xrotation Yrotation Zrotation
							JOINT Neck
							{
								OFFSET 0.000000 14.033295 7.520400
								CHANNELS 3 Xrotation Yrotation Zrotation
								JOINT Head
								{
									OFFSET 0.000000 8.198502 5.703100
									CHANNELS 3 Xrotation Yrotation Zrotation
									JOINT HeadTop_End
									{
										OFFSET 0.000000 17.760803 13.332701
										CHANNELS 3 Xrotation Yrotation Zrotation
										End Site
										{
											OFFSET 0 0 0
										}
									}
								}
							}
						}
						JOINT LeftShoulder_virtual
						{
							OFFSET 0.000000 0.000000 0.000000
							CHANNELS 3 Xrotation Yrotation Zrotation
							JOINT LeftShoulder
							{
								OFFSET 6.292450 5.785301 -0.669000
								CHANNELS 3 Xrotation Yrotation Zrotation
								JOINT LeftShoulder_split
								{
									OFFSET 6.292450 5.785301 -0.669000
									CHANNELS 3 Xrotation Yrotation Zrotation
									JOINT LeftArm
									{
										OFFSET 13.907140 -6.093903 1.965100
										CHANNELS 3 Xrotation Yrotation Zrotation
										JOINT LeftForeArm
										{
											OFFSET 34.140198 0.000000 0.000000
											CHANNELS 3 Xrotation Yrotation Zrotation
											JOINT LeftHand
											{
												OFFSET 40.960209 0.000000 0.000000
												CHANNELS 3 Xrotation Yrotation Zrotation
												End Site
												{
													OFFSET 0 0 0
												}
											}
										}
									}
								}
							}
						}
						JOINT RightShoulder_virtual
						{
							OFFSET 0.000000 0.000000 0.000000
							CHANNELS 3 Xrotation Yrotation Zrotation
							JOINT RightShoulder
							{
								OFFSET -6.292450 5.785301 -0.669000
								CHANNELS 3 Xrotation Yrotation Zrotation
								JOINT RightShoulder_split
								{
									OFFSET -6.292450 5.785301 -0.669000
									CHANNELS 3 Xrotation Yrotation Zrotation
									JOINT RightArm
									{
										OFFSET -13.907140 -6.093903 1.965100
										CHANNELS 3 Xrotation Yrotation Zrotation
										JOINT RightForeArm
										{
											OFFSET -34.140198 0.000000 0.000000
											CHANNELS 3 Xrotation Yrotation Zrotation
											JOINT RightHand
											{
												OFFSET -40.960209 0.000000 0.000000
												CHANNELS 3 Xrotation Yrotation Zrotation
												End Site
												{
													OFFSET 0 0 0
												}
											}
										}
									}
								}
							}
						}
					}
				}
			}
		}
	}
}
MOTION
Frames: 5
Frame Time: 0.03333333
-0.682097 103.748840 1.458130 0.000000 0.000000 0.000000 -4.160237 -15.569093 -2.270050 -34.399640 17.474416 12.582865 46.428945 -0.514533 9.816629 -13.000299 2.812981 -8.389748 -0.751247 -0.187171 -0.940182 0.000000 0.000000 0.000000 -4.872868 -13.873706 -1.965476 -30.567542 -22.638172 -12.254570 47.140548 -4.652186 -12.796044 -11.169613 -1.283020 12.737123 -3.775320 0.685803 -0.067660 0.000000 0.000000 0.000000 -3.116120 -17.376539 -2.227608 4.340828 2.861807 2.482113 2.841244 2.020528 -0.040980 1.648930 -0.619196 0.176034 0.000000 0.000000 0.000000 2.806352 1.775061 -0.016945 1.065551 -0.192253 4.536671 0.240772 9.710574 1.318636 0.000000 0.000000 0.000000 2.729625 1.963808 -0.225975 -0.029013 -4.027113 17.146138 -1.959283 -0.051068 -0.541682 -66.889743 -43.358133 -62.490357 -0.945822 -34.266636 0.741408 0.000000 0.000000 0.000000 3.229859 1.945719 -0.079912 -0.352672 -3.430937 -5.201548 0.882156 0.881732 0.616280 -104.044429 58.808543 95.588463 -1.496943 29.815220 0.421429 0.000000 0.000000 0.000000 
-0.708556 103.675827 1.450142 0.000000 0.000000 0.000000 -4.098753 -15.603996 -2.222473 -34.468645 17.518540 12.488649 46.334470 -0.528953 9.851033 -12.934839 2.768661 -8.430094 -0.773281 -0.169527 -0.952151 0.000000 0.000000 0.000000 -4.869488 -13.851908 -1.924490 -30.540904 -22.700714 -12.313071 47.404986 -4.708593 -12.742046 -11.381669 -1.279441 12.764155 -3.388775 0.677412 -0.124445 0.000000 0.000000 0.000000 -3.127309 -17.258402 -2.284486 4.347894 2.833614 2.413789 2.856447 2.013822 -0.072895 1.541560 -0.316668 0.049210 0.000000 0.000000 0.000000 2.729921 1.754037 -0.042380 0.919525 -0.313752 4.572705 0.442862 9.748779 1.309048 0.000000 0.000000 0.000000 2.741701 1.943059 -0.240329 -0.083248 -3.883351 17.065571 -1.964503 -0.048952 -0.433766 -66.812699 -43.571003 -62.579491 -0.899021 -34.555611 0.801475 0.000000 0.000000 0.000000 3.293410 1.947610 -0.098033 -0.330583 -3.339009 -5.298158 0.875660 0.837180 0.595508 -104.037961 59.327255 95.759601 -1.368443 29.547812 0.386474 0.000000 0.000000 0.000000 
-0.712327 103.619247 1.438976 0.000000 0.000000 0.000000 -4.004430 -15.719503 -2.129188 -34.565494 17.603447 12.349028 46.242853 -0.541343 9.962926 -12.728226 2.659219 -8.572207 -0.748147 -0.139741 -0.989432 0.000000 0.000000 0.000000 -4.845299 -14.028577 -1.840392 -30.559335 -22.733856 -12.380692 47.522616 -4.788417 -12.683277 -11.389240 -1.333132 12.832168 -3.308210 0.631075 -0.188032 0.000000 0.000000 0.000000 -3.161174 -17.130073 -2.317659 4.270961 2.768372 2.287530 2.809185 2.046071 -0.117197 1.311241 -0.316075 -0.068313 0.000000 0.000000 0.000000 2.679554 1.778435 -0.090487 0.809465 -0.515213 4.774988 0.868349 9.599260 1.477865 0.000000 0.000000 0.000000 2.740753 1.964661 -0.276195 -0.166431 -3.591987 16.898247 -1.878418 -0.041158 -0.422548 -66.602049 -44.050776 -62.616558 -0.940324 -35.028051 0.748091 0.000000 0.000000 0.000000 3.323645 1.983353 -0.129332 -0.260405 -3.115777 -5.454506 0.685613 0.764852 0.402212 -103.806526 59.987338 96.058619 -1.203075 29.348292 0.309531 0.000000 0.000000 0.000000 
-0.702846 103.610947 1.433319 0.000000 0.000000 0.000000 -3.888822 -15.949098 -2.023973 -34.675487 17.734721 12.251751 46.115064 -0.529081 10.115864 -12.468963 2.530511 -8.739820 -0.682566 -0.098657 -1.037996 0.000000 0.000000 0.000000 -4.741673 -14.383818 -1.738624 -30.590433 -22.695178 -12.391485 47.445776 -4.859313 -12.643759 -11.185088 -1.408264 12.897301 -3.540961 0.553368 -0.203146 0.000000 0.000000 0.000000 -3.185546 -17.109171 -2.318346 4.112194 2.670839 2.152247 2.706551 2.090747 -0.166772 1.006093 -0.572556 -0.030523 0.000000 0.000000 0.000000 2.649906 1.831430 -0.147667 0.739772 -0.752792 5.089485 1.368944 9.369630 1.770402 0.000000 0.000000 0.000000 2.713114 2.011807 -0.328439 -0.265445 -3.196722 16.629994 -1.678138 -0.069048 -0.497388 -66.332994 -44.802438 -62.718861 -1.021542 -35.459941 0.588449 0.000000 0.000000 0.000000 3.313049 2.033121 -0.166665 -0.150684 -2.804012 -5.669642 0.490580 0.652572 0.206970 -103.384496 60.616016 96.417396 -1.029280 29.306590 0.207517 0.000000 0.000000 0.000000 
-0.698511 103.634911 1.442024 0.000000 0.000000 0.000000 -3.791870 -16.286967 -1.947742 -34.809274 17.881683 12.225946 45.998356 -0.476185 10.278425 -12.187349 2.446485 -8.850765 -0.584187 -0.048602 -1.082606 0.000000 0.000000 0.000000 -4.539981 -14.824171 -1.656814 -30.601600 -22.550891 -12.289711 47.256672 -4.954660 -12.628670 -10.907186 -1.495145 12.784543 -3.671980 0.457963 -0.124931 0.000000 0.000000 0.000000 -3.096952 -17.236467 -2.281287 3.901593 2.568350 2.044851 2.571832 2.125150 -0.211428 0.887476 -0.870500 0.080372 0.000000 0.000000 0.000000 2.625428 1.877608 -0.198530 0.691845 -0.975957 5.391990 1.755106 9.161400 2.104221 0.000000 0.000000 0.000000 2.650168 2.055166 -0.382331 -0.377175 -2.748601 16.312556 -1.588435 -0.094622 -0.653012 -66.111716 -45.762503 -62.928124 -1.067546 -35.775670 0.407511 0.000000 0.000000 0.000000 3.252024 2.071549 -0.200022 -0.021298 -2.446512 -5.924732 0.310716 0.505419 0.011908 -102.936073 61.066071 96.737991 -0.889122 29.420644 0.156381 0.000000 0.000000 0.000000 
